<svg width="66" height="59" viewBox="0 0 66 59" fill="none" xmlns="http://www.w3.org/2000/svg">
<path d="M19 2C19 0.895431 18.1046 0 17 0C15.8954 0 15 0.895431 15 2L19 2ZM15 22V24H19V22H15ZM15 2L15 22H19V2L15 2Z" fill="white"/>
<path d="M63 53C64.1046 53 65 52.1046 65 51C65 49.8954 64.1046 49 63 49L63 53ZM35 49L33 49L33 53L35 53L35 49ZM63 49L35 49L35 53L63 53L63 49Z" fill="white"/>
<path d="M63.0949 51.0003V23.9997" stroke="white" stroke-width="4" stroke-linecap="round"/>
<path d="M63.0988 1.99955L63.0988 23.5571" stroke="#FFF500" stroke-width="4" stroke-linecap="round"/>
<path d="M45 2L63 2" stroke="#FFF500" stroke-width="4" stroke-linecap="round"/>
<path d="M17 2L45 2" stroke="white" stroke-width="4" stroke-linecap="round"/>
<path d="M6.50444 27.5085V26.7273H11.959V27.5085H9.67205V34H8.79137V27.5085H6.50444ZM14.0426 30.7188V34H13.2045V26.7273H14.0426V29.3977H14.1136C14.2415 29.116 14.4332 28.8923 14.6889 28.7266C14.947 28.5585 15.2902 28.4744 15.7188 28.4744C16.0904 28.4744 16.416 28.549 16.6953 28.6982C16.9747 28.8449 17.1913 29.071 17.3452 29.3764C17.5014 29.6795 17.5795 30.0653 17.5795 30.5341V34H16.7415V30.5909C16.7415 30.1577 16.629 29.8227 16.4041 29.5859C16.1816 29.3468 15.8726 29.2273 15.4773 29.2273C15.2027 29.2273 14.9564 29.2853 14.7386 29.4013C14.5232 29.5173 14.3527 29.6866 14.2273 29.9091C14.1042 30.1316 14.0426 30.4015 14.0426 30.7188ZM21.3997 34.1136C20.8741 34.1136 20.4208 33.9976 20.0396 33.7656C19.6608 33.5312 19.3684 33.2045 19.1625 32.7855C18.9589 32.3641 18.8571 31.8741 18.8571 31.3153C18.8571 30.7566 18.9589 30.2642 19.1625 29.8381C19.3684 29.4096 19.6549 29.0758 20.0218 28.8366C20.3912 28.5952 20.822 28.4744 21.3145 28.4744C21.5985 28.4744 21.8791 28.5218 22.1561 28.6165C22.4331 28.7112 22.6852 28.8651 22.9125 29.0781C23.1397 29.2888 23.3208 29.5682 23.4558 29.9162C23.5907 30.2642 23.6582 30.6927 23.6582 31.2017V31.5568H19.4537V30.8324H22.8059C22.8059 30.5246 22.7444 30.25 22.6213 30.0085C22.5005 29.767 22.3277 29.5765 22.1028 29.4368C21.8803 29.2971 21.6175 29.2273 21.3145 29.2273C20.9806 29.2273 20.6918 29.3101 20.448 29.4759C20.2065 29.6392 20.0207 29.8523 19.8904 30.1151C19.7602 30.3778 19.6951 30.6596 19.6951 30.9602V31.4432C19.6951 31.8551 19.7662 32.2043 19.9082 32.4908C20.0526 32.7749 20.2527 32.9915 20.5083 33.1406C20.764 33.2874 21.0611 33.3608 21.3997 33.3608C21.6199 33.3608 21.8187 33.33 21.9963 33.2685C22.1762 33.2045 22.3313 33.1098 22.4615 32.9844C22.5917 32.8565 22.6923 32.6979 22.7633 32.5085L23.573 32.7358C23.4877 33.0104 23.3445 33.2519 23.1433 33.4602C22.9421 33.6662 22.6935 33.8272 22.3975 33.9432C22.1016 34.0568 21.769 34.1136 21.3997 34.1136ZM7.83833 54.3636C7.83833 55.1307 7.69984 55.7936 7.42285 56.3523C7.14586 56.911 6.76589 57.3419 6.28294 57.6449C5.79998 57.9479 5.24837 58.0994 4.62811 58.0994C4.00784 58.0994 3.45623 57.9479 2.97328 57.6449C2.49032 57.3419 2.11035 56.911 1.83336 56.3523C1.55637 55.7936 1.41788 55.1307 1.41788 54.3636C1.41788 53.5966 1.55637 52.9337 1.83336 52.375C2.11035 51.8163 2.49032 51.3854 2.97328 51.0824C3.45623 50.7794 4.00784 50.6278 4.62811 50.6278C5.24837 50.6278 5.79998 50.7794 6.28294 51.0824C6.76589 51.3854 7.14586 51.8163 7.42285 52.375C7.69984 52.9337 7.83833 53.5966 7.83833 54.3636ZM6.98606 54.3636C6.98606 53.7339 6.88071 53.2024 6.67001 52.7692C6.46168 52.3359 6.17877 52.008 5.82129 51.7855C5.46618 51.563 5.06845 51.4517 4.62811 51.4517C4.18777 51.4517 3.78886 51.563 3.43137 51.7855C3.07626 52.008 2.79335 52.3359 2.58265 52.7692C2.37432 53.2024 2.27015 53.7339 2.27015 54.3636C2.27015 54.9934 2.37432 55.5249 2.58265 55.9581C2.79335 56.3913 3.07626 56.7192 3.43137 56.9418C3.78886 57.1643 4.18777 57.2756 4.62811 57.2756C5.06845 57.2756 5.46618 57.1643 5.82129 56.9418C6.17877 56.7192 6.46168 56.3913 6.67001 55.9581C6.88071 55.5249 6.98606 54.9934 6.98606 54.3636ZM11.6345 52.5455V53.2557H8.69416V52.5455H11.6345ZM9.57484 58V51.7926C9.57484 51.4801 9.64823 51.2197 9.79501 51.0114C9.94179 50.803 10.1324 50.6468 10.3667 50.5426C10.6011 50.4384 10.8485 50.3864 11.1089 50.3864C11.3149 50.3864 11.483 50.4029 11.6132 50.4361C11.7434 50.4692 11.8405 50.5 11.9044 50.5284L11.6629 51.2528C11.6203 51.2386 11.5611 51.2209 11.4854 51.1996C11.412 51.1783 11.3149 51.1676 11.1942 51.1676C10.9172 51.1676 10.7171 51.2375 10.594 51.3771C10.4733 51.5168 10.4129 51.7216 10.4129 51.9915V58H9.57484ZM15.238 52.5455V53.2557H12.2977V52.5455H15.238ZM13.1784 58V51.7926C13.1784 51.4801 13.2517 51.2197 13.3985 51.0114C13.5453 50.803 13.7359 50.6468 13.9703 50.5426C14.2046 50.4384 14.452 50.3864 14.7124 50.3864C14.9184 50.3864 15.0865 50.4029 15.2167 50.4361C15.3469 50.4692 15.444 50.5 15.5079 50.5284L15.2664 51.2528C15.2238 51.2386 15.1646 51.2209 15.0889 51.1996C15.0155 51.1783 14.9184 51.1676 14.7977 51.1676C14.5207 51.1676 14.3206 51.2375 14.1975 51.3771C14.0768 51.5168 14.0164 51.7216 14.0164 51.9915V58H13.1784ZM16.4126 58V52.5455H17.2506V58H16.4126ZM16.8387 51.6364C16.6753 51.6364 16.5345 51.5807 16.4161 51.4695C16.3001 51.3582 16.2421 51.2244 16.2421 51.0682C16.2421 50.9119 16.3001 50.7782 16.4161 50.6669C16.5345 50.5556 16.6753 50.5 16.8387 50.5C17.002 50.5 17.1417 50.5556 17.2577 50.6669C17.3761 50.7782 17.4353 50.9119 17.4353 51.0682C17.4353 51.2244 17.3761 51.3582 17.2577 51.4695C17.1417 51.5807 17.002 51.6364 16.8387 51.6364ZM21.0015 58.1136C20.4901 58.1136 20.0498 57.9929 19.6805 57.7514C19.3112 57.5099 19.0271 57.1773 18.8282 56.7536C18.6294 56.3298 18.5299 55.8456 18.5299 55.3011C18.5299 54.7472 18.6317 54.2583 18.8353 53.8345C19.0413 53.4084 19.3277 53.0758 19.6947 52.8366C20.064 52.5952 20.4949 52.4744 20.9873 52.4744C21.3708 52.4744 21.7165 52.5455 22.0242 52.6875C22.332 52.8295 22.5841 53.0284 22.7806 53.2841C22.9771 53.5398 23.099 53.8381 23.1464 54.179H22.3083C22.2444 53.9304 22.1024 53.7102 21.8822 53.5185C21.6644 53.3243 21.3708 53.2273 21.0015 53.2273C20.6748 53.2273 20.3883 53.3125 20.1421 53.483C19.8983 53.651 19.7077 53.889 19.5704 54.1967C19.4355 54.5021 19.368 54.8608 19.368 55.2727C19.368 55.6941 19.4343 56.0611 19.5669 56.3736C19.7018 56.6861 19.8912 56.9287 20.135 57.1016C20.3812 57.2744 20.6701 57.3608 21.0015 57.3608C21.2193 57.3608 21.417 57.3229 21.5945 57.2472C21.7721 57.1714 21.9224 57.0625 22.0455 56.9205C22.1686 56.7784 22.2562 56.608 22.3083 56.4091H23.1464C23.099 56.7311 22.9819 57.0211 22.7948 57.2791C22.6102 57.5348 22.3651 57.7384 22.0597 57.8899C21.7567 58.0391 21.404 58.1136 21.0015 58.1136ZM26.6585 58.1136C26.1329 58.1136 25.6795 57.9976 25.2984 57.7656C24.9196 57.5312 24.6272 57.2045 24.4213 56.7855C24.2177 56.3641 24.1159 55.8741 24.1159 55.3153C24.1159 54.7566 24.2177 54.2642 24.4213 53.8381C24.6272 53.4096 24.9137 53.0758 25.2806 52.8366C25.6499 52.5952 26.0808 52.4744 26.5732 52.4744C26.8573 52.4744 27.1379 52.5218 27.4149 52.6165C27.6919 52.7112 27.944 52.8651 28.1713 53.0781C28.3985 53.2888 28.5796 53.5682 28.7146 53.9162C28.8495 54.2642 28.917 54.6927 28.917 55.2017V55.5568H24.7124V54.8324H28.0647C28.0647 54.5246 28.0032 54.25 27.8801 54.0085C27.7593 53.767 27.5865 53.5765 27.3616 53.4368C27.1391 53.2971 26.8763 53.2273 26.5732 53.2273C26.2394 53.2273 25.9506 53.3101 25.7068 53.4759C25.4653 53.6392 25.2794 53.8523 25.1492 54.1151C25.019 54.3778 24.9539 54.6596 24.9539 54.9602V55.4432C24.9539 55.8551 25.0249 56.2043 25.167 56.4908C25.3114 56.7749 25.5115 56.9915 25.7671 57.1406C26.0228 57.2874 26.3199 57.3608 26.6585 57.3608C26.8786 57.3608 27.0775 57.33 27.2551 57.2685C27.435 57.2045 27.5901 57.1098 27.7203 56.9844C27.8505 56.8565 27.9511 56.6979 28.0221 56.5085L28.8318 56.7358C28.7465 57.0104 28.6033 57.2519 28.4021 57.4602C28.2008 57.6662 27.9523 57.8272 27.6563 57.9432C27.3604 58.0568 27.0278 58.1136 26.6585 58.1136ZM30.8026 58.0568C30.6275 58.0568 30.4771 57.9941 30.3517 57.8686C30.2262 57.7431 30.1634 57.5928 30.1634 57.4176C30.1634 57.2424 30.2262 57.0921 30.3517 56.9666C30.4771 56.8411 30.6275 56.7784 30.8026 56.7784C30.9778 56.7784 31.1282 56.8411 31.2536 56.9666C31.3791 57.0921 31.4419 57.2424 31.4419 57.4176C31.4419 57.5336 31.4123 57.6402 31.3531 57.7372C31.2963 57.8343 31.2193 57.9124 31.1222 57.9716C31.0276 58.0284 30.921 58.0568 30.8026 58.0568Z" fill="#FFF500"/>
<path d="M7.0562 41H6.17552C6.12343 40.7467 6.03229 40.5241 5.90208 40.3324C5.77424 40.1406 5.61799 39.9796 5.43333 39.8494C5.25104 39.7169 5.04862 39.6174 4.82608 39.5511C4.60355 39.4848 4.37154 39.4517 4.13006 39.4517C3.68972 39.4517 3.29081 39.563 2.93333 39.7855C2.57821 40.008 2.29531 40.3359 2.08461 40.7692C1.87627 41.2024 1.77211 41.7339 1.77211 42.3636C1.77211 42.9934 1.87627 43.5249 2.08461 43.9581C2.29531 44.3913 2.57821 44.7192 2.93333 44.9418C3.29081 45.1643 3.68972 45.2756 4.13006 45.2756C4.37154 45.2756 4.60355 45.2424 4.82608 45.1761C5.04862 45.1098 5.25104 45.0116 5.43333 44.8814C5.61799 44.7488 5.77424 44.5866 5.90208 44.3949C6.03229 44.2008 6.12343 43.9782 6.17552 43.7273H7.0562C6.98991 44.099 6.86917 44.4316 6.69398 44.7251C6.51879 45.0187 6.30099 45.2685 6.04057 45.4744C5.78016 45.678 5.48778 45.8331 5.16344 45.9396C4.84147 46.0462 4.49701 46.0994 4.13006 46.0994C3.5098 46.0994 2.95819 45.9479 2.47523 45.6449C1.99228 45.3419 1.6123 44.911 1.33532 44.3523C1.05833 43.7936 0.919833 43.1307 0.919833 42.3636C0.919833 41.5966 1.05833 40.9337 1.33532 40.375C1.6123 39.8163 1.99228 39.3854 2.47523 39.0824C2.95819 38.7794 3.5098 38.6278 4.13006 38.6278C4.49701 38.6278 4.84147 38.6811 5.16344 38.7876C5.48778 38.8942 5.78016 39.0504 6.04057 39.2564C6.30099 39.46 6.51879 39.7086 6.69398 40.0021C6.86917 40.2933 6.98991 40.6259 7.0562 41ZM10.5816 46.1136C10.0892 46.1136 9.65711 45.9964 9.28542 45.7621C8.9161 45.5277 8.62728 45.1998 8.41895 44.7784C8.21298 44.357 8.11 43.8646 8.11 43.3011C8.11 42.733 8.21298 42.237 8.41895 41.8132C8.62728 41.3894 8.9161 41.0604 9.28542 40.826C9.65711 40.5916 10.0892 40.4744 10.5816 40.4744C11.074 40.4744 11.5049 40.5916 11.8742 40.826C12.2459 41.0604 12.5347 41.3894 12.7407 41.8132C12.949 42.237 13.0532 42.733 13.0532 43.3011C13.0532 43.8646 12.949 44.357 12.7407 44.7784C12.5347 45.1998 12.2459 45.5277 11.8742 45.7621C11.5049 45.9964 11.074 46.1136 10.5816 46.1136ZM10.5816 45.3608C10.9556 45.3608 11.2634 45.2649 11.5049 45.0732C11.7464 44.8814 11.9251 44.6293 12.0411 44.3168C12.1571 44.0043 12.2151 43.6657 12.2151 43.3011C12.2151 42.9366 12.1571 42.5968 12.0411 42.282C11.9251 41.9671 11.7464 41.7126 11.5049 41.5185C11.2634 41.3243 10.9556 41.2273 10.5816 41.2273C10.2075 41.2273 9.89977 41.3243 9.65829 41.5185C9.41681 41.7126 9.23807 41.9671 9.12207 42.282C9.00607 42.5968 8.94806 42.9366 8.94806 43.3011C8.94806 43.6657 9.00607 44.0043 9.12207 44.3168C9.23807 44.6293 9.41681 44.8814 9.65829 45.0732C9.89977 45.2649 10.2075 45.3608 10.5816 45.3608ZM14.3325 46V40.5455H15.1421V41.3693H15.199C15.2984 41.0994 15.4783 40.8804 15.7387 40.7124C15.9991 40.5443 16.2927 40.4602 16.6194 40.4602C16.681 40.4602 16.7579 40.4614 16.8502 40.4638C16.9426 40.4661 17.0124 40.4697 17.0597 40.4744V41.3267C17.0313 41.3196 16.9662 41.3089 16.8644 41.2947C16.765 41.2782 16.6597 41.2699 16.5484 41.2699C16.2832 41.2699 16.0465 41.3255 15.8382 41.4368C15.6322 41.5457 15.4688 41.6972 15.3481 41.8913C15.2297 42.0831 15.1705 42.3021 15.1705 42.5483V46H14.3325ZM18.8912 42.7188V46H18.0532V40.5455H18.8628V41.3977H18.9339C19.0617 41.1207 19.2558 40.8982 19.5162 40.7301C19.7767 40.5597 20.1128 40.4744 20.5248 40.4744C20.8941 40.4744 21.2172 40.5502 21.4942 40.7017C21.7712 40.8509 21.9867 41.0781 22.1405 41.3835C22.2944 41.6866 22.3714 42.0701 22.3714 42.5341V46H21.5333V42.5909C21.5333 42.1624 21.422 41.8286 21.1995 41.5895C20.9769 41.348 20.6715 41.2273 20.2833 41.2273C20.0158 41.2273 19.7767 41.2853 19.566 41.4013C19.3576 41.5173 19.1931 41.6866 19.0724 41.9091C18.9516 42.1316 18.8912 42.4015 18.8912 42.7188ZM26.1897 46.1136C25.6642 46.1136 25.2108 45.9976 24.8296 45.7656C24.4508 45.5312 24.1585 45.2045 23.9525 44.7855C23.7489 44.3641 23.6471 43.8741 23.6471 43.3153C23.6471 42.7566 23.7489 42.2642 23.9525 41.8381C24.1585 41.4096 24.4449 41.0758 24.8119 40.8366C25.1812 40.5952 25.6121 40.4744 26.1045 40.4744C26.3886 40.4744 26.6691 40.5218 26.9461 40.6165C27.2231 40.7112 27.4752 40.8651 27.7025 41.0781C27.9298 41.2888 28.1109 41.5682 28.2458 41.9162C28.3808 42.2642 28.4482 42.6927 28.4482 43.2017V43.5568H24.2437V42.8324H27.596C27.596 42.5246 27.5344 42.25 27.4113 42.0085C27.2906 41.767 27.1177 41.5765 26.8928 41.4368C26.6703 41.2971 26.4075 41.2273 26.1045 41.2273C25.7707 41.2273 25.4819 41.3101 25.238 41.4759C24.9965 41.6392 24.8107 41.8523 24.6805 42.1151C24.5503 42.3778 24.4852 42.6596 24.4852 42.9602V43.4432C24.4852 43.8551 24.5562 44.2043 24.6982 44.4908C24.8427 44.7749 25.0427 44.9915 25.2984 45.1406C25.5541 45.2874 25.8512 45.3608 26.1897 45.3608C26.4099 45.3608 26.6088 45.33 26.7863 45.2685C26.9662 45.2045 27.1213 45.1098 27.2515 44.9844C27.3817 44.8565 27.4823 44.6979 27.5534 44.5085L28.363 44.7358C28.2778 45.0104 28.1346 45.2519 27.9333 45.4602C27.7321 45.6662 27.4835 45.8272 27.1876 45.9432C26.8917 46.0568 26.559 46.1136 26.1897 46.1136ZM29.7231 46V40.5455H30.5328V41.3693H30.5896C30.689 41.0994 30.8689 40.8804 31.1294 40.7124C31.3898 40.5443 31.6833 40.4602 32.01 40.4602C32.0716 40.4602 32.1485 40.4614 32.2409 40.4638C32.3332 40.4661 32.403 40.4697 32.4504 40.4744V41.3267C32.422 41.3196 32.3569 41.3089 32.2551 41.2947C32.1556 41.2782 32.0503 41.2699 31.939 41.2699C31.6739 41.2699 31.4371 41.3255 31.2288 41.4368C31.0228 41.5457 30.8595 41.6972 30.7387 41.8913C30.6204 42.0831 30.5612 42.3021 30.5612 42.5483V46H29.7231Z" fill="white"/>
</svg>
