<svg width="67" height="60" viewBox="0 0 67 60" fill="none" xmlns="http://www.w3.org/2000/svg">
<g style="mix-blend-mode:screen">
<path d="M20 3C20 1.34315 18.6569 0 17 0C15.3431 0 14 1.34315 14 3H20ZM14 23V26H20V23H14ZM14 3L14 23H20V3H14Z" fill="white"/>
</g>
<path d="M63 55C64.6569 55 66 53.6569 66 52C66 50.3431 64.6569 49 63 49L63 55ZM35 49L32 49L32 55L35 55L35 49ZM63 49L35 49L35 55L63 55L63 49Z" fill="white"/>
<path d="M63 52.0706L63.1897 25" stroke="white" stroke-width="6" stroke-linecap="round"/>
<g style="mix-blend-mode:screen">
<path d="M63 3L63.1976 24.5567" stroke="#FFF500" stroke-width="6" stroke-linecap="round"/>
</g>
<g style="mix-blend-mode:screen">
<path d="M45 3L63 3" stroke="#FFF500" stroke-width="6" stroke-linecap="round"/>
</g>
<g style="mix-blend-mode:screen">
<path d="M17 3L45 3" stroke="white" stroke-width="6" stroke-linecap="round"/>
</g>
<path d="M6.50444 28.5085V27.7273H11.959V28.5085H9.67205V35H8.79137V28.5085H6.50444ZM14.0426 31.7188V35H13.2045V27.7273H14.0426V30.3977H14.1136C14.2415 30.116 14.4332 29.8923 14.6889 29.7266C14.947 29.5585 15.2902 29.4744 15.7188 29.4744C16.0904 29.4744 16.416 29.549 16.6953 29.6982C16.9747 29.8449 17.1913 30.071 17.3452 30.3764C17.5014 30.6795 17.5795 31.0653 17.5795 31.5341V35H16.7415V31.5909C16.7415 31.1577 16.629 30.8227 16.4041 30.5859C16.1816 30.3468 15.8726 30.2273 15.4773 30.2273C15.2027 30.2273 14.9564 30.2853 14.7386 30.4013C14.5232 30.5173 14.3527 30.6866 14.2273 30.9091C14.1042 31.1316 14.0426 31.4015 14.0426 31.7188ZM21.3997 35.1136C20.8741 35.1136 20.4208 34.9976 20.0396 34.7656C19.6608 34.5312 19.3684 34.2045 19.1625 33.7855C18.9589 33.3641 18.8571 32.8741 18.8571 32.3153C18.8571 31.7566 18.9589 31.2642 19.1625 30.8381C19.3684 30.4096 19.6549 30.0758 20.0218 29.8366C20.3912 29.5952 20.822 29.4744 21.3145 29.4744C21.5985 29.4744 21.8791 29.5218 22.1561 29.6165C22.4331 29.7112 22.6852 29.8651 22.9125 30.0781C23.1397 30.2888 23.3208 30.5682 23.4558 30.9162C23.5907 31.2642 23.6582 31.6927 23.6582 32.2017V32.5568H19.4537V31.8324H22.8059C22.8059 31.5246 22.7444 31.25 22.6213 31.0085C22.5005 30.767 22.3277 30.5765 22.1028 30.4368C21.8803 30.2971 21.6175 30.2273 21.3145 30.2273C20.9806 30.2273 20.6918 30.3101 20.448 30.4759C20.2065 30.6392 20.0207 30.8523 19.8904 31.1151C19.7602 31.3778 19.6951 31.6596 19.6951 31.9602V32.4432C19.6951 32.8551 19.7662 33.2043 19.9082 33.4908C20.0526 33.7749 20.2527 33.9915 20.5083 34.1406C20.764 34.2874 21.0611 34.3608 21.3997 34.3608C21.6199 34.3608 21.8187 34.33 21.9963 34.2685C22.1762 34.2045 22.3313 34.1098 22.4615 33.9844C22.5917 33.8565 22.6923 33.6979 22.7633 33.5085L23.573 33.7358C23.4877 34.0104 23.3445 34.2519 23.1433 34.4602C22.9421 34.6662 22.6935 34.8272 22.3975 34.9432C22.1016 35.0568 21.769 35.1136 21.3997 35.1136ZM7.83833 55.3636C7.83833 56.1307 7.69984 56.7936 7.42285 57.3523C7.14586 57.911 6.76589 58.3419 6.28294 58.6449C5.79998 58.9479 5.24837 59.0994 4.62811 59.0994C4.00784 59.0994 3.45623 58.9479 2.97328 58.6449C2.49032 58.3419 2.11035 57.911 1.83336 57.3523C1.55637 56.7936 1.41788 56.1307 1.41788 55.3636C1.41788 54.5966 1.55637 53.9337 1.83336 53.375C2.11035 52.8163 2.49032 52.3854 2.97328 52.0824C3.45623 51.7794 4.00784 51.6278 4.62811 51.6278C5.24837 51.6278 5.79998 51.7794 6.28294 52.0824C6.76589 52.3854 7.14586 52.8163 7.42285 53.375C7.69984 53.9337 7.83833 54.5966 7.83833 55.3636ZM6.98606 55.3636C6.98606 54.7339 6.88071 54.2024 6.67001 53.7692C6.46168 53.3359 6.17877 53.008 5.82129 52.7855C5.46618 52.563 5.06845 52.4517 4.62811 52.4517C4.18777 52.4517 3.78886 52.563 3.43137 52.7855C3.07626 53.008 2.79335 53.3359 2.58265 53.7692C2.37432 54.2024 2.27015 54.7339 2.27015 55.3636C2.27015 55.9934 2.37432 56.5249 2.58265 56.9581C2.79335 57.3913 3.07626 57.7192 3.43137 57.9418C3.78886 58.1643 4.18777 58.2756 4.62811 58.2756C5.06845 58.2756 5.46618 58.1643 5.82129 57.9418C6.17877 57.7192 6.46168 57.3913 6.67001 56.9581C6.88071 56.5249 6.98606 55.9934 6.98606 55.3636ZM11.6345 53.5455V54.2557H8.69416V53.5455H11.6345ZM9.57484 59V52.7926C9.57484 52.4801 9.64823 52.2197 9.79501 52.0114C9.94179 51.803 10.1324 51.6468 10.3667 51.5426C10.6011 51.4384 10.8485 51.3864 11.1089 51.3864C11.3149 51.3864 11.483 51.4029 11.6132 51.4361C11.7434 51.4692 11.8405 51.5 11.9044 51.5284L11.6629 52.2528C11.6203 52.2386 11.5611 52.2209 11.4854 52.1996C11.412 52.1783 11.3149 52.1676 11.1942 52.1676C10.9172 52.1676 10.7171 52.2375 10.594 52.3771C10.4733 52.5168 10.4129 52.7216 10.4129 52.9915V59H9.57484ZM15.238 53.5455V54.2557H12.2977V53.5455H15.238ZM13.1784 59V52.7926C13.1784 52.4801 13.2517 52.2197 13.3985 52.0114C13.5453 51.803 13.7359 51.6468 13.9703 51.5426C14.2046 51.4384 14.452 51.3864 14.7124 51.3864C14.9184 51.3864 15.0865 51.4029 15.2167 51.4361C15.3469 51.4692 15.444 51.5 15.5079 51.5284L15.2664 52.2528C15.2238 52.2386 15.1646 52.2209 15.0889 52.1996C15.0155 52.1783 14.9184 52.1676 14.7977 52.1676C14.5207 52.1676 14.3206 52.2375 14.1975 52.3771C14.0768 52.5168 14.0164 52.7216 14.0164 52.9915V59H13.1784ZM16.4126 59V53.5455H17.2506V59H16.4126ZM16.8387 52.6364C16.6753 52.6364 16.5345 52.5807 16.4161 52.4695C16.3001 52.3582 16.2421 52.2244 16.2421 52.0682C16.2421 51.9119 16.3001 51.7782 16.4161 51.6669C16.5345 51.5556 16.6753 51.5 16.8387 51.5C17.002 51.5 17.1417 51.5556 17.2577 51.6669C17.3761 51.7782 17.4353 51.9119 17.4353 52.0682C17.4353 52.2244 17.3761 52.3582 17.2577 52.4695C17.1417 52.5807 17.002 52.6364 16.8387 52.6364ZM21.0015 59.1136C20.4901 59.1136 20.0498 58.9929 19.6805 58.7514C19.3112 58.5099 19.0271 58.1773 18.8282 57.7536C18.6294 57.3298 18.5299 56.8456 18.5299 56.3011C18.5299 55.7472 18.6317 55.2583 18.8353 54.8345C19.0413 54.4084 19.3277 54.0758 19.6947 53.8366C20.064 53.5952 20.4949 53.4744 20.9873 53.4744C21.3708 53.4744 21.7165 53.5455 22.0242 53.6875C22.332 53.8295 22.5841 54.0284 22.7806 54.2841C22.9771 54.5398 23.099 54.8381 23.1464 55.179H22.3083C22.2444 54.9304 22.1024 54.7102 21.8822 54.5185C21.6644 54.3243 21.3708 54.2273 21.0015 54.2273C20.6748 54.2273 20.3883 54.3125 20.1421 54.483C19.8983 54.651 19.7077 54.889 19.5704 55.1967C19.4355 55.5021 19.368 55.8608 19.368 56.2727C19.368 56.6941 19.4343 57.0611 19.5669 57.3736C19.7018 57.6861 19.8912 57.9287 20.135 58.1016C20.3812 58.2744 20.6701 58.3608 21.0015 58.3608C21.2193 58.3608 21.417 58.3229 21.5945 58.2472C21.7721 58.1714 21.9224 58.0625 22.0455 57.9205C22.1686 57.7784 22.2562 57.608 22.3083 57.4091H23.1464C23.099 57.7311 22.9819 58.0211 22.7948 58.2791C22.6102 58.5348 22.3651 58.7384 22.0597 58.8899C21.7567 59.0391 21.404 59.1136 21.0015 59.1136ZM26.6585 59.1136C26.1329 59.1136 25.6795 58.9976 25.2984 58.7656C24.9196 58.5312 24.6272 58.2045 24.4213 57.7855C24.2177 57.3641 24.1159 56.8741 24.1159 56.3153C24.1159 55.7566 24.2177 55.2642 24.4213 54.8381C24.6272 54.4096 24.9137 54.0758 25.2806 53.8366C25.6499 53.5952 26.0808 53.4744 26.5732 53.4744C26.8573 53.4744 27.1379 53.5218 27.4149 53.6165C27.6919 53.7112 27.944 53.8651 28.1713 54.0781C28.3985 54.2888 28.5796 54.5682 28.7146 54.9162C28.8495 55.2642 28.917 55.6927 28.917 56.2017V56.5568H24.7124V55.8324H28.0647C28.0647 55.5246 28.0032 55.25 27.8801 55.0085C27.7593 54.767 27.5865 54.5765 27.3616 54.4368C27.1391 54.2971 26.8763 54.2273 26.5732 54.2273C26.2394 54.2273 25.9506 54.3101 25.7068 54.4759C25.4653 54.6392 25.2794 54.8523 25.1492 55.1151C25.019 55.3778 24.9539 55.6596 24.9539 55.9602V56.4432C24.9539 56.8551 25.0249 57.2043 25.167 57.4908C25.3114 57.7749 25.5115 57.9915 25.7671 58.1406C26.0228 58.2874 26.3199 58.3608 26.6585 58.3608C26.8786 58.3608 27.0775 58.33 27.2551 58.2685C27.435 58.2045 27.5901 58.1098 27.7203 57.9844C27.8505 57.8565 27.9511 57.6979 28.0221 57.5085L28.8318 57.7358C28.7465 58.0104 28.6033 58.2519 28.4021 58.4602C28.2008 58.6662 27.9523 58.8272 27.6563 58.9432C27.3604 59.0568 27.0278 59.1136 26.6585 59.1136ZM30.8026 59.0568C30.6275 59.0568 30.4771 58.9941 30.3517 58.8686C30.2262 58.7431 30.1634 58.5928 30.1634 58.4176C30.1634 58.2424 30.2262 58.0921 30.3517 57.9666C30.4771 57.8411 30.6275 57.7784 30.8026 57.7784C30.9778 57.7784 31.1282 57.8411 31.2536 57.9666C31.3791 58.0921 31.4419 58.2424 31.4419 58.4176C31.4419 58.5336 31.4123 58.6402 31.3531 58.7372C31.2963 58.8343 31.2193 58.9124 31.1222 58.9716C31.0276 59.0284 30.921 59.0568 30.8026 59.0568Z" fill="#FFF500"/>
<path d="M7.0562 42H6.17552C6.12343 41.7467 6.03229 41.5241 5.90208 41.3324C5.77424 41.1406 5.61799 40.9796 5.43333 40.8494C5.25104 40.7169 5.04862 40.6174 4.82608 40.5511C4.60355 40.4848 4.37154 40.4517 4.13006 40.4517C3.68972 40.4517 3.29081 40.563 2.93333 40.7855C2.57821 41.008 2.29531 41.3359 2.08461 41.7692C1.87627 42.2024 1.77211 42.7339 1.77211 43.3636C1.77211 43.9934 1.87627 44.5249 2.08461 44.9581C2.29531 45.3913 2.57821 45.7192 2.93333 45.9418C3.29081 46.1643 3.68972 46.2756 4.13006 46.2756C4.37154 46.2756 4.60355 46.2424 4.82608 46.1761C5.04862 46.1098 5.25104 46.0116 5.43333 45.8814C5.61799 45.7488 5.77424 45.5866 5.90208 45.3949C6.03229 45.2008 6.12343 44.9782 6.17552 44.7273H7.0562C6.98991 45.099 6.86917 45.4316 6.69398 45.7251C6.51879 46.0187 6.30099 46.2685 6.04057 46.4744C5.78016 46.678 5.48778 46.8331 5.16344 46.9396C4.84147 47.0462 4.49701 47.0994 4.13006 47.0994C3.5098 47.0994 2.95819 46.9479 2.47523 46.6449C1.99228 46.3419 1.6123 45.911 1.33532 45.3523C1.05833 44.7936 0.919833 44.1307 0.919833 43.3636C0.919833 42.5966 1.05833 41.9337 1.33532 41.375C1.6123 40.8163 1.99228 40.3854 2.47523 40.0824C2.95819 39.7794 3.5098 39.6278 4.13006 39.6278C4.49701 39.6278 4.84147 39.6811 5.16344 39.7876C5.48778 39.8942 5.78016 40.0504 6.04057 40.2564C6.30099 40.46 6.51879 40.7086 6.69398 41.0021C6.86917 41.2933 6.98991 41.6259 7.0562 42ZM10.5816 47.1136C10.0892 47.1136 9.65711 46.9964 9.28542 46.7621C8.9161 46.5277 8.62728 46.1998 8.41895 45.7784C8.21298 45.357 8.11 44.8646 8.11 44.3011C8.11 43.733 8.21298 43.237 8.41895 42.8132C8.62728 42.3894 8.9161 42.0604 9.28542 41.826C9.65711 41.5916 10.0892 41.4744 10.5816 41.4744C11.074 41.4744 11.5049 41.5916 11.8742 41.826C12.2459 42.0604 12.5347 42.3894 12.7407 42.8132C12.949 43.237 13.0532 43.733 13.0532 44.3011C13.0532 44.8646 12.949 45.357 12.7407 45.7784C12.5347 46.1998 12.2459 46.5277 11.8742 46.7621C11.5049 46.9964 11.074 47.1136 10.5816 47.1136ZM10.5816 46.3608C10.9556 46.3608 11.2634 46.2649 11.5049 46.0732C11.7464 45.8814 11.9251 45.6293 12.0411 45.3168C12.1571 45.0043 12.2151 44.6657 12.2151 44.3011C12.2151 43.9366 12.1571 43.5968 12.0411 43.282C11.9251 42.9671 11.7464 42.7126 11.5049 42.5185C11.2634 42.3243 10.9556 42.2273 10.5816 42.2273C10.2075 42.2273 9.89977 42.3243 9.65829 42.5185C9.41681 42.7126 9.23807 42.9671 9.12207 43.282C9.00607 43.5968 8.94806 43.9366 8.94806 44.3011C8.94806 44.6657 9.00607 45.0043 9.12207 45.3168C9.23807 45.6293 9.41681 45.8814 9.65829 46.0732C9.89977 46.2649 10.2075 46.3608 10.5816 46.3608ZM14.3325 47V41.5455H15.1421V42.3693H15.199C15.2984 42.0994 15.4783 41.8804 15.7387 41.7124C15.9991 41.5443 16.2927 41.4602 16.6194 41.4602C16.681 41.4602 16.7579 41.4614 16.8502 41.4638C16.9426 41.4661 17.0124 41.4697 17.0597 41.4744V42.3267C17.0313 42.3196 16.9662 42.3089 16.8644 42.2947C16.765 42.2782 16.6597 42.2699 16.5484 42.2699C16.2832 42.2699 16.0465 42.3255 15.8382 42.4368C15.6322 42.5457 15.4688 42.6972 15.3481 42.8913C15.2297 43.0831 15.1705 43.3021 15.1705 43.5483V47H14.3325ZM18.8912 43.7188V47H18.0532V41.5455H18.8628V42.3977H18.9339C19.0617 42.1207 19.2558 41.8982 19.5162 41.7301C19.7767 41.5597 20.1128 41.4744 20.5248 41.4744C20.8941 41.4744 21.2172 41.5502 21.4942 41.7017C21.7712 41.8509 21.9867 42.0781 22.1405 42.3835C22.2944 42.6866 22.3714 43.0701 22.3714 43.5341V47H21.5333V43.5909C21.5333 43.1624 21.422 42.8286 21.1995 42.5895C20.9769 42.348 20.6715 42.2273 20.2833 42.2273C20.0158 42.2273 19.7767 42.2853 19.566 42.4013C19.3576 42.5173 19.1931 42.6866 19.0724 42.9091C18.9516 43.1316 18.8912 43.4015 18.8912 43.7188ZM26.1897 47.1136C25.6642 47.1136 25.2108 46.9976 24.8296 46.7656C24.4508 46.5312 24.1585 46.2045 23.9525 45.7855C23.7489 45.3641 23.6471 44.8741 23.6471 44.3153C23.6471 43.7566 23.7489 43.2642 23.9525 42.8381C24.1585 42.4096 24.4449 42.0758 24.8119 41.8366C25.1812 41.5952 25.6121 41.4744 26.1045 41.4744C26.3886 41.4744 26.6691 41.5218 26.9461 41.6165C27.2231 41.7112 27.4752 41.8651 27.7025 42.0781C27.9298 42.2888 28.1109 42.5682 28.2458 42.9162C28.3808 43.2642 28.4482 43.6927 28.4482 44.2017V44.5568H24.2437V43.8324H27.596C27.596 43.5246 27.5344 43.25 27.4113 43.0085C27.2906 42.767 27.1177 42.5765 26.8928 42.4368C26.6703 42.2971 26.4075 42.2273 26.1045 42.2273C25.7707 42.2273 25.4819 42.3101 25.238 42.4759C24.9965 42.6392 24.8107 42.8523 24.6805 43.1151C24.5503 43.3778 24.4852 43.6596 24.4852 43.9602V44.4432C24.4852 44.8551 24.5562 45.2043 24.6982 45.4908C24.8427 45.7749 25.0427 45.9915 25.2984 46.1406C25.5541 46.2874 25.8512 46.3608 26.1897 46.3608C26.4099 46.3608 26.6088 46.33 26.7863 46.2685C26.9662 46.2045 27.1213 46.1098 27.2515 45.9844C27.3817 45.8565 27.4823 45.6979 27.5534 45.5085L28.363 45.7358C28.2778 46.0104 28.1346 46.2519 27.9333 46.4602C27.7321 46.6662 27.4835 46.8272 27.1876 46.9432C26.8917 47.0568 26.559 47.1136 26.1897 47.1136ZM29.7231 47V41.5455H30.5328V42.3693H30.5896C30.689 42.0994 30.8689 41.8804 31.1294 41.7124C31.3898 41.5443 31.6833 41.4602 32.01 41.4602C32.0716 41.4602 32.1485 41.4614 32.2409 41.4638C32.3332 41.4661 32.403 41.4697 32.4504 41.4744V42.3267C32.422 42.3196 32.3569 42.3089 32.2551 42.2947C32.1556 42.2782 32.0503 42.2699 31.939 42.2699C31.6739 42.2699 31.4371 42.3255 31.2288 42.4368C31.0228 42.5457 30.8595 42.6972 30.7387 42.8913C30.6204 43.0831 30.5612 43.3021 30.5612 43.5483V47H29.7231Z" fill="white"/>
</svg>
