<svg width="95" height="85" viewBox="0 0 95 85" fill="none" xmlns="http://www.w3.org/2000/svg">
<path d="M28 3C28 1.34315 26.6569 0 25 0C23.3431 0 22 1.34315 22 3H28ZM22 31V34H28V31H22ZM22 3V31H28V3H22Z" fill="white"/>
<path d="M92 75C93.6569 75 95 73.6569 95 72C95 70.3431 93.6569 69 92 69L92 75ZM51 69L48 69L48 75L51 75L51 69ZM92 69L51 69L51 75L92 75L92 69Z" fill="white"/>
<path d="M92 72V34" stroke="white" stroke-width="6" stroke-linecap="round"/>
<path d="M92 3V33.6919" stroke="#FFF500" stroke-width="6" stroke-linecap="round"/>
<path d="M66 3L92 3" stroke="#FFF500" stroke-width="6" stroke-linecap="round"/>
<path d="M25 3L66 3" stroke="white" stroke-width="6" stroke-linecap="round"/>
<path d="M9.00666 38.2628V37.0909H17.1885V38.2628H13.7581V48H12.4371V38.2628H9.00666ZM20.3139 43.0781V48H19.0568V37.0909H20.3139V41.0966H20.4205C20.6122 40.674 20.8999 40.3384 21.2834 40.0898C21.6705 39.8377 22.1854 39.7116 22.8281 39.7116C23.3857 39.7116 23.8739 39.8235 24.293 40.0472C24.712 40.2674 25.0369 40.6065 25.2678 41.0646C25.5021 41.5192 25.6193 42.098 25.6193 42.8011V48H24.3622V42.8864C24.3622 42.2365 24.1935 41.734 23.8562 41.3789C23.5224 41.0202 23.0589 40.8409 22.4659 40.8409C22.054 40.8409 21.6847 40.9279 21.358 41.1019C21.0348 41.2759 20.7791 41.5298 20.5909 41.8636C20.4063 42.1974 20.3139 42.6023 20.3139 43.0781ZM31.3495 48.1705C30.5612 48.1705 29.8811 47.9964 29.3094 47.6484C28.7412 47.2969 28.3026 46.8068 27.9937 46.1783C27.6883 45.5462 27.5356 44.8111 27.5356 43.973C27.5356 43.1349 27.6883 42.3963 27.9937 41.7571C28.3026 41.1143 28.7323 40.6136 29.2828 40.255C29.8367 39.8928 30.483 39.7116 31.2217 39.7116C31.6478 39.7116 32.0686 39.7827 32.4841 39.9247C32.8996 40.0668 33.2778 40.2976 33.6187 40.6172C33.9596 40.9332 34.2313 41.3523 34.4337 41.8743C34.6361 42.3963 34.7373 43.0391 34.7373 43.8026V44.3352H28.4305V43.2486H33.4589C33.4589 42.7869 33.3666 42.375 33.1819 42.0128C33.0008 41.6506 32.7416 41.3647 32.4042 41.1552C32.0704 40.9457 31.6762 40.8409 31.2217 40.8409C30.721 40.8409 30.2877 40.9652 29.922 41.2138C29.5597 41.4588 29.281 41.7784 29.0857 42.1726C28.8904 42.5668 28.7927 42.9893 28.7927 43.4403V44.1648C28.7927 44.7827 28.8992 45.3065 29.1123 45.7362C29.3289 46.1623 29.629 46.4872 30.0125 46.7109C30.396 46.9311 30.8417 47.0412 31.3495 47.0412C31.6798 47.0412 31.9781 46.995 32.2444 46.9027C32.5143 46.8068 32.7469 46.6648 32.9422 46.4766C33.1375 46.2848 33.2884 46.0469 33.395 45.7628L34.6095 46.1037C34.4816 46.5156 34.2668 46.8778 33.9649 47.1903C33.6631 47.4993 33.2902 47.7408 32.8463 47.9148C32.4024 48.0852 31.9035 48.1705 31.3495 48.1705ZM11.0075 78.5455C11.0075 79.696 10.7998 80.6903 10.3843 81.5284C9.96879 82.3665 9.39884 83.0128 8.67441 83.4673C7.94997 83.9219 7.12256 84.1491 6.19216 84.1491C5.26176 84.1491 4.43435 83.9219 3.70992 83.4673C2.98548 83.0128 2.41553 82.3665 2.00004 81.5284C1.58456 80.6903 1.37682 79.696 1.37682 78.5455C1.37682 77.3949 1.58456 76.4006 2.00004 75.5625C2.41553 74.7244 2.98548 74.0781 3.70992 73.6236C4.43435 73.169 5.26176 72.9418 6.19216 72.9418C7.12256 72.9418 7.94997 73.169 8.67441 73.6236C9.39884 74.0781 9.96879 74.7244 10.3843 75.5625C10.7998 76.4006 11.0075 77.3949 11.0075 78.5455ZM9.72909 78.5455C9.72909 77.6009 9.57107 76.8036 9.25502 76.1538C8.94252 75.5039 8.51816 75.0121 7.98193 74.6783C7.44926 74.3445 6.85267 74.1776 6.19216 74.1776C5.53165 74.1776 4.93328 74.3445 4.39706 74.6783C3.86439 75.0121 3.44003 75.5039 3.12398 76.1538C2.81148 76.8036 2.65523 77.6009 2.65523 78.5455C2.65523 79.4901 2.81148 80.2873 3.12398 80.9371C3.44003 81.587 3.86439 82.0788 4.39706 82.4126C4.93328 82.7464 5.53165 82.9134 6.19216 82.9134C6.85267 82.9134 7.44926 82.7464 7.98193 82.4126C8.51816 82.0788 8.94252 81.587 9.25502 80.9371C9.57107 80.2873 9.72909 79.4901 9.72909 78.5455ZM16.7017 75.8182V76.8835H12.2912V75.8182H16.7017ZM13.6123 84V74.6889C13.6123 74.2202 13.7223 73.8295 13.9425 73.517C14.1627 73.2045 14.4486 72.9702 14.8001 72.8139C15.1517 72.6577 15.5228 72.5795 15.9134 72.5795C16.2223 72.5795 16.4745 72.6044 16.6698 72.6541C16.8651 72.7038 17.0107 72.75 17.1066 72.7926L16.7444 73.8793C16.6804 73.858 16.5917 73.8313 16.478 73.7994C16.3679 73.7674 16.2223 73.7514 16.0412 73.7514C15.6258 73.7514 15.3257 73.8562 15.141 74.0657C14.9599 74.2752 14.8694 74.5824 14.8694 74.9872V84H13.6123ZM22.107 75.8182V76.8835H17.6965V75.8182H22.107ZM19.0175 84V74.6889C19.0175 74.2202 19.1276 73.8295 19.3478 73.517C19.568 73.2045 19.8538 72.9702 20.2054 72.8139C20.557 72.6577 20.928 72.5795 21.3187 72.5795C21.6276 72.5795 21.8797 72.6044 22.0751 72.6541C22.2704 72.7038 22.416 72.75 22.5119 72.7926L22.1496 73.8793C22.0857 73.858 21.9969 73.8313 21.8833 73.7994C21.7732 73.7674 21.6276 73.7514 21.4465 73.7514C21.031 73.7514 20.731 73.8562 20.5463 74.0657C20.3652 74.2752 20.2746 74.5824 20.2746 74.9872V84H19.0175ZM23.8688 84V75.8182H25.1259V84H23.8688ZM24.508 74.4545C24.263 74.4545 24.0517 74.3711 23.8742 74.2042C23.7002 74.0373 23.6131 73.8366 23.6131 73.6023C23.6131 73.3679 23.7002 73.1673 23.8742 73.0004C24.0517 72.8335 24.263 72.75 24.508 72.75C24.7531 72.75 24.9626 72.8335 25.1366 73.0004C25.3141 73.1673 25.4029 73.3679 25.4029 73.6023C25.4029 73.8366 25.3141 74.0373 25.1366 74.2042C24.9626 74.3711 24.7531 74.4545 24.508 74.4545ZM30.7523 84.1705C29.9852 84.1705 29.3247 83.9893 28.7707 83.6271C28.2168 83.2649 27.7906 82.766 27.4923 82.1303C27.194 81.4947 27.0449 80.7685 27.0449 79.9517C27.0449 79.1207 27.1976 78.3874 27.503 77.7518C27.8119 77.1126 28.2416 76.6136 28.792 76.255C29.346 75.8928 29.9923 75.7116 30.731 75.7116C31.3062 75.7116 31.8247 75.8182 32.2864 76.0312C32.748 76.2443 33.1262 76.5426 33.4209 76.9261C33.7157 77.3097 33.8986 77.7571 33.9696 78.2685H32.7125C32.6166 77.8956 32.4035 77.5653 32.0733 77.2777C31.7466 76.9865 31.3062 76.8409 30.7523 76.8409C30.2622 76.8409 29.8325 76.9687 29.4632 77.2244C29.0974 77.4766 28.8116 77.8335 28.6056 78.2951C28.4032 78.7532 28.302 79.2912 28.302 79.9091C28.302 80.5412 28.4014 81.0916 28.6003 81.5604C28.8027 82.0291 29.0868 82.3931 29.4525 82.6523C29.8219 82.9116 30.2551 83.0412 30.7523 83.0412C31.079 83.0412 31.3755 82.9844 31.6418 82.8707C31.9082 82.7571 32.1337 82.5938 32.3183 82.3807C32.503 82.1676 32.6344 81.9119 32.7125 81.6136H33.9696C33.8986 82.0966 33.7228 82.5316 33.4422 82.9187C33.1653 83.3022 32.7977 83.6076 32.3396 83.8349C31.8851 84.0586 31.356 84.1705 30.7523 84.1705ZM39.2377 84.1705C38.4494 84.1705 37.7693 83.9964 37.1976 83.6484C36.6294 83.2969 36.1908 82.8068 35.8819 82.1783C35.5765 81.5462 35.4238 80.8111 35.4238 79.973C35.4238 79.1349 35.5765 78.3963 35.8819 77.7571C36.1908 77.1143 36.6205 76.6136 37.1709 76.255C37.7249 75.8928 38.3712 75.7116 39.1099 75.7116C39.536 75.7116 39.9568 75.7827 40.3723 75.9247C40.7878 76.0668 41.166 76.2976 41.5069 76.6172C41.8478 76.9332 42.1195 77.3523 42.3219 77.8743C42.5243 78.3963 42.6255 79.0391 42.6255 79.8026V80.3352H36.3187V79.2486H41.3471C41.3471 78.7869 41.2547 78.375 41.0701 78.0128C40.889 77.6506 40.6297 77.3647 40.2924 77.1552C39.9586 76.9457 39.5644 76.8409 39.1099 76.8409C38.6092 76.8409 38.1759 76.9652 37.8101 77.2138C37.4479 77.4588 37.1692 77.7784 36.9739 78.1726C36.7785 78.5668 36.6809 78.9893 36.6809 79.4403V80.1648C36.6809 80.7827 36.7874 81.3065 37.0005 81.7362C37.2171 82.1623 37.5172 82.4872 37.9007 82.7109C38.2842 82.9311 38.7299 83.0412 39.2377 83.0412C39.568 83.0412 39.8663 82.995 40.1326 82.9027C40.4025 82.8068 40.6351 82.6648 40.8304 82.4766C41.0257 82.2848 41.1766 82.0469 41.2832 81.7628L42.4976 82.1037C42.3698 82.5156 42.155 82.8778 41.8531 83.1903C41.5513 83.4993 41.1784 83.7408 40.7345 83.9148C40.2906 84.0852 39.7917 84.1705 39.2377 84.1705ZM45.454 84.0852C45.1912 84.0852 44.9657 83.9911 44.7775 83.8029C44.5893 83.6147 44.4952 83.3892 44.4952 83.1264C44.4952 82.8636 44.5893 82.6381 44.7775 82.4499C44.9657 82.2617 45.1912 82.1676 45.454 82.1676C45.7168 82.1676 45.9422 82.2617 46.1305 82.4499C46.3187 82.6381 46.4128 82.8636 46.4128 83.1264C46.4128 83.3004 46.3684 83.4602 46.2796 83.6058C46.1944 83.7514 46.079 83.8686 45.9334 83.9574C45.7913 84.0426 45.6315 84.0852 45.454 84.0852Z" fill="#FFF500"/>
<path d="M9.8343 58.5H8.51327C8.43515 58.12 8.29843 57.7862 8.10312 57.4986C7.91135 57.2109 7.67698 56.9695 7.39999 56.7741C7.12655 56.5753 6.82293 56.4261 6.48912 56.3267C6.15532 56.2273 5.80731 56.1776 5.44509 56.1776C4.78458 56.1776 4.18621 56.3445 3.64999 56.6783C3.11732 57.0121 2.69296 57.5039 2.37691 58.1538C2.06441 58.8036 1.90816 59.6009 1.90816 60.5455C1.90816 61.4901 2.06441 62.2873 2.37691 62.9371C2.69296 63.587 3.11732 64.0788 3.64999 64.4126C4.18621 64.7464 4.78458 64.9134 5.44509 64.9134C5.80731 64.9134 6.15532 64.8636 6.48912 64.7642C6.82293 64.6648 7.12655 64.5174 7.39999 64.3221C7.67698 64.1232 7.91135 63.88 8.10312 63.5923C8.29843 63.3011 8.43515 62.9673 8.51327 62.5909H9.8343C9.73486 63.1484 9.55376 63.6474 9.29097 64.0877C9.02819 64.5281 8.70148 64.9027 8.31086 65.2116C7.92023 65.517 7.48167 65.7496 6.99516 65.9094C6.51221 66.0692 5.99552 66.1491 5.44509 66.1491C4.51469 66.1491 3.68728 65.9219 2.96285 65.4673C2.23841 65.0128 1.66846 64.3665 1.25297 63.5284C0.837491 62.6903 0.62975 61.696 0.62975 60.5455C0.62975 59.3949 0.837491 58.4006 1.25297 57.5625C1.66846 56.7244 2.23841 56.0781 2.96285 55.6236C3.68728 55.169 4.51469 54.9418 5.44509 54.9418C5.99552 54.9418 6.51221 55.0217 6.99516 55.1815C7.48167 55.3413 7.92023 55.5756 8.31086 55.8846C8.70148 56.19 9.02819 56.5629 9.29097 57.0032C9.55376 57.44 9.73486 57.9389 9.8343 58.5ZM15.1224 66.1705C14.3837 66.1705 13.7357 65.9947 13.1781 65.6431C12.6242 65.2915 12.1909 64.7997 11.8784 64.1676C11.5695 63.5355 11.415 62.7969 11.415 61.9517C11.415 61.0994 11.5695 60.3555 11.8784 59.7198C12.1909 59.0842 12.6242 58.5906 13.1781 58.239C13.7357 57.8874 14.3837 57.7116 15.1224 57.7116C15.861 57.7116 16.5073 57.8874 17.0613 58.239C17.6188 58.5906 18.0521 59.0842 18.361 59.7198C18.6735 60.3555 18.8298 61.0994 18.8298 61.9517C18.8298 62.7969 18.6735 63.5355 18.361 64.1676C18.0521 64.7997 17.6188 65.2915 17.0613 65.6431C16.5073 65.9947 15.861 66.1705 15.1224 66.1705ZM15.1224 65.0412C15.6835 65.0412 16.1451 64.8974 16.5073 64.6097C16.8695 64.3221 17.1377 63.9439 17.3117 63.4751C17.4857 63.0064 17.5727 62.4986 17.5727 61.9517C17.5727 61.4048 17.4857 60.8952 17.3117 60.4229C17.1377 59.9506 16.8695 59.5689 16.5073 59.2777C16.1451 58.9865 15.6835 58.8409 15.1224 58.8409C14.5613 58.8409 14.0997 58.9865 13.7374 59.2777C13.3752 59.5689 13.1071 59.9506 12.9331 60.4229C12.7591 60.8952 12.6721 61.4048 12.6721 61.9517C12.6721 62.4986 12.7591 63.0064 12.9331 63.4751C13.1071 63.9439 13.3752 64.3221 13.7374 64.6097C14.0997 64.8974 14.5613 65.0412 15.1224 65.0412ZM20.7487 66V57.8182H21.9632V59.054H22.0484C22.1976 58.6491 22.4675 58.3207 22.8581 58.0685C23.2487 57.8164 23.6891 57.6903 24.1791 57.6903C24.2714 57.6903 24.3869 57.6921 24.5253 57.6957C24.6638 57.6992 24.7686 57.7045 24.8396 57.7116V58.9901C24.797 58.9794 24.6994 58.9634 24.5467 58.9421C24.3975 58.9173 24.2395 58.9048 24.0726 58.9048C23.6748 58.9048 23.3197 58.9883 23.0072 59.1552C22.6983 59.3185 22.4533 59.5458 22.2722 59.837C22.0946 60.1246 22.0058 60.4531 22.0058 60.8224V66H20.7487ZM27.5869 61.0781V66H26.3298V57.8182H27.5443V59.0966H27.6508C27.8426 58.6811 28.1337 58.3473 28.5244 58.0952C28.915 57.8395 29.4193 57.7116 30.0372 57.7116C30.5911 57.7116 31.0759 57.8253 31.4913 58.0526C31.9068 58.2763 32.23 58.6172 32.4608 59.0753C32.6916 59.5298 32.807 60.1051 32.807 60.8011V66H31.5499V60.8864C31.5499 60.2436 31.383 59.7429 31.0492 59.3842C30.7154 59.022 30.2573 58.8409 29.6749 58.8409C29.2737 58.8409 28.915 58.9279 28.5989 59.1019C28.2864 59.2759 28.0396 59.5298 27.8585 59.8636C27.6774 60.1974 27.5869 60.6023 27.5869 61.0781ZM38.5346 66.1705C37.7462 66.1705 37.0662 65.9964 36.4945 65.6484C35.9263 65.2969 35.4877 64.8068 35.1788 64.1783C34.8734 63.5462 34.7207 62.8111 34.7207 61.973C34.7207 61.1349 34.8734 60.3963 35.1788 59.7571C35.4877 59.1143 35.9174 58.6136 36.4678 58.255C37.0218 57.8928 37.6681 57.7116 38.4067 57.7116C38.8329 57.7116 39.2537 57.7827 39.6692 57.9247C40.0847 58.0668 40.4628 58.2976 40.8038 58.6172C41.1447 58.9332 41.4163 59.3523 41.6187 59.8743C41.8212 60.3963 41.9224 61.0391 41.9224 61.8026V62.3352H35.6155V61.2486H40.644C40.644 60.7869 40.5516 60.375 40.367 60.0128C40.1859 59.6506 39.9266 59.3647 39.5893 59.1552C39.2555 58.9457 38.8613 58.8409 38.4067 58.8409C37.906 58.8409 37.4728 58.9652 37.107 59.2138C36.7448 59.4588 36.466 59.7784 36.2707 60.1726C36.0754 60.5668 35.9778 60.9893 35.9778 61.4403V62.1648C35.9778 62.7827 36.0843 63.3065 36.2974 63.7362C36.514 64.1623 36.8141 64.4872 37.1976 64.7109C37.5811 64.9311 38.0268 65.0412 38.5346 65.0412C38.8648 65.0412 39.1631 64.995 39.4295 64.9027C39.6994 64.8068 39.932 64.6648 40.1273 64.4766C40.3226 64.2848 40.4735 64.0469 40.58 63.7628L41.7945 64.1037C41.6667 64.5156 41.4518 64.8778 41.15 65.1903C40.8481 65.4993 40.4753 65.7408 40.0314 65.9148C39.5875 66.0852 39.0886 66.1705 38.5346 66.1705ZM43.8347 66V57.8182H45.0491V59.054H45.1344C45.2835 58.6491 45.5534 58.3207 45.944 58.0685C46.3347 57.8164 46.775 57.6903 47.265 57.6903C47.3574 57.6903 47.4728 57.6921 47.6113 57.6957C47.7498 57.6992 47.8545 57.7045 47.9256 57.7116V58.9901C47.8829 58.9794 47.7853 58.9634 47.6326 58.9421C47.4834 58.9173 47.3254 58.9048 47.1585 58.9048C46.7608 58.9048 46.4057 58.9883 46.0932 59.1552C45.7842 59.3185 45.5392 59.5458 45.3581 59.837C45.1805 60.1246 45.0918 60.4531 45.0918 60.8224V66H43.8347Z" fill="white"/>
</svg>
