<svg width="95" height="84" viewBox="0 0 95 84" fill="none" xmlns="http://www.w3.org/2000/svg">
<g style="mix-blend-mode:screen">
<path d="M25 3C25 1.34315 23.6569 0 22 0C20.3431 0 19 1.34315 19 3H25ZM19 32V35H25V32H19ZM19 3V32H25V3H19Z" fill="white"/>
</g>
<path d="M91 76C92.6569 76 94 74.6569 94 73C94 71.3431 92.6569 70 91 70L91 76ZM50 70L47 70L47 76L50 76L50 70ZM91 70L50 70L50 76L91 76L91 70Z" fill="white"/>
<path d="M91 73L91.284 34" stroke="white" stroke-width="6" stroke-linecap="round"/>
<g style="mix-blend-mode:screen">
<path d="M91 3L91.2958 34.0562" stroke="#FFF500" stroke-width="6" stroke-linecap="round"/>
</g>
<g style="mix-blend-mode:screen">
<path d="M64 3L91 3" stroke="#FFF500" stroke-width="6" stroke-linecap="round"/>
</g>
<g style="mix-blend-mode:screen">
<path d="M22 3L64 3" stroke="white" stroke-width="6" stroke-linecap="round"/>
</g>
<path d="M8.00621 39.9119V38.8182H15.6426V39.9119H12.4409V49H11.2079V39.9119H8.00621ZM18.5597 44.4062V49H17.3864V38.8182H18.5597V42.5568H18.6591C18.8381 42.1624 19.1065 41.8492 19.4645 41.6172C19.8258 41.3819 20.3063 41.2642 20.9062 41.2642C21.4266 41.2642 21.8823 41.3686 22.2734 41.5774C22.6645 41.7829 22.9678 42.0994 23.1832 42.527C23.402 42.9512 23.5114 43.4915 23.5114 44.1477V49H22.3381V44.2273C22.3381 43.6207 22.1806 43.1518 21.8658 42.8203C21.5542 42.4856 21.1217 42.3182 20.5682 42.3182C20.1837 42.3182 19.839 42.3994 19.5341 42.5618C19.2325 42.7242 18.9938 42.9612 18.8182 43.2727C18.6458 43.5843 18.5597 43.9621 18.5597 44.4062ZM28.8596 49.1591C28.1238 49.1591 27.4891 48.9967 26.9554 48.6719C26.4251 48.3438 26.0158 47.8864 25.7275 47.2997C25.4424 46.7098 25.2999 46.0237 25.2999 45.2415C25.2999 44.4593 25.4424 43.7699 25.7275 43.1733C26.0158 42.5734 26.4168 42.1061 26.9306 41.7713C27.4476 41.4332 28.0508 41.2642 28.7402 41.2642C29.138 41.2642 29.5307 41.3305 29.9185 41.4631C30.3063 41.5956 30.6593 41.8111 30.9775 42.1094C31.2956 42.4044 31.5492 42.7955 31.7381 43.2827C31.927 43.7699 32.0215 44.3698 32.0215 45.0824V45.5795H26.1351V44.5653H30.8283C30.8283 44.1345 30.7421 43.75 30.5698 43.4119C30.4007 43.0739 30.1588 42.8071 29.8439 42.6115C29.5324 42.416 29.1645 42.3182 28.7402 42.3182C28.2729 42.3182 27.8685 42.4342 27.5272 42.6662C27.1891 42.8949 26.9289 43.1932 26.7466 43.5611C26.5643 43.929 26.4732 44.3234 26.4732 44.7443V45.4205C26.4732 45.9972 26.5726 46.486 26.7715 46.8871C26.9737 47.2848 27.2537 47.5881 27.6117 47.7969C27.9696 48.0024 28.3856 48.1051 28.8596 48.1051C29.1678 48.1051 29.4462 48.062 29.6948 47.9759C29.9467 47.8864 30.1638 47.7538 30.3461 47.5781C30.5284 47.3991 30.6692 47.1771 30.7686 46.9119L31.9022 47.2301C31.7828 47.6146 31.5823 47.9527 31.3006 48.2443C31.0189 48.5327 30.6709 48.758 30.2566 48.9205C29.8423 49.0795 29.3766 49.1591 28.8596 49.1591ZM9.87367 77.9091C9.87367 78.983 9.67978 79.911 9.29199 80.6932C8.90421 81.4754 8.37225 82.0786 7.69611 82.5028C7.01998 82.9271 6.24772 83.1392 5.37935 83.1392C4.51098 83.1392 3.73873 82.9271 3.06259 82.5028C2.38645 82.0786 1.85449 81.4754 1.46671 80.6932C1.07892 79.911 0.885032 78.983 0.885032 77.9091C0.885032 76.8352 1.07892 75.9072 1.46671 75.125C1.85449 74.3428 2.38645 73.7396 3.06259 73.3153C3.73873 72.8911 4.51098 72.679 5.37935 72.679C6.24772 72.679 7.01998 72.8911 7.69611 73.3153C8.37225 73.7396 8.90421 74.3428 9.29199 75.125C9.67978 75.9072 9.87367 76.8352 9.87367 77.9091ZM8.68049 77.9091C8.68049 77.0275 8.533 76.2834 8.23802 75.6768C7.94635 75.0703 7.55028 74.6113 7.0498 74.2997C6.55265 73.9882 5.99583 73.8324 5.37935 73.8324C4.76287 73.8324 4.2044 73.9882 3.70392 74.2997C3.20677 74.6113 2.81069 75.0703 2.51571 75.6768C2.22405 76.2834 2.07821 77.0275 2.07821 77.9091C2.07821 78.7907 2.22405 79.5348 2.51571 80.1413C2.81069 80.7479 3.20677 81.2069 3.70392 81.5185C4.2044 81.83 4.76287 81.9858 5.37935 81.9858C5.99583 81.9858 6.55265 81.83 7.0498 81.5185C7.55028 81.2069 7.94635 80.7479 8.23802 80.1413C8.533 79.5348 8.68049 78.7907 8.68049 77.9091ZM15.1883 75.3636V76.358H11.0718V75.3636H15.1883ZM12.3048 83V74.3097C12.3048 73.8722 12.4075 73.5076 12.613 73.2159C12.8185 72.9242 13.0853 72.7055 13.4134 72.5597C13.7416 72.4138 14.0879 72.3409 14.4525 72.3409C14.7409 72.3409 14.9762 72.3641 15.1585 72.4105C15.3408 72.4569 15.4767 72.5 15.5661 72.5398L15.2281 73.554C15.1684 73.5341 15.0856 73.5092 14.9795 73.4794C14.8767 73.4496 14.7409 73.4347 14.5718 73.4347C14.184 73.4347 13.904 73.5324 13.7316 73.728C13.5626 73.9235 13.4781 74.2102 13.4781 74.5881V83H12.3048ZM20.2332 75.3636V76.358H16.1167V75.3636H20.2332ZM17.3497 83V74.3097C17.3497 73.8722 17.4524 73.5076 17.6579 73.2159C17.8634 72.9242 18.1302 72.7055 18.4584 72.5597C18.7865 72.4138 19.1328 72.3409 19.4974 72.3409C19.7858 72.3409 20.0211 72.3641 20.2034 72.4105C20.3857 72.4569 20.5216 72.5 20.6111 72.5398L20.273 73.554C20.2133 73.5341 20.1305 73.5092 20.0244 73.4794C19.9217 73.4496 19.7858 73.4347 19.6167 73.4347C19.229 73.4347 18.9489 73.5324 18.7765 73.728C18.6075 73.9235 18.523 74.2102 18.523 74.5881V83H17.3497ZM21.8776 83V75.3636H23.0509V83H21.8776ZM22.4742 74.0909C22.2455 74.0909 22.0483 74.013 21.8825 73.8572C21.7201 73.7015 21.6389 73.5142 21.6389 73.2955C21.6389 73.0767 21.7201 72.8894 21.8825 72.7337C22.0483 72.5779 22.2455 72.5 22.4742 72.5C22.7029 72.5 22.8984 72.5779 23.0608 72.7337C23.2265 72.8894 23.3094 73.0767 23.3094 73.2955C23.3094 73.5142 23.2265 73.7015 23.0608 73.8572C22.8984 74.013 22.7029 74.0909 22.4742 74.0909ZM28.3021 83.1591C27.5862 83.1591 26.9697 82.9901 26.4527 82.652C25.9356 82.3139 25.5379 81.8482 25.2595 81.255C24.9811 80.6617 24.8419 79.9839 24.8419 79.2216C24.8419 78.446 24.9844 77.7616 25.2694 77.1683C25.5578 76.5717 25.9588 76.1061 26.4726 75.7713C26.9896 75.4332 27.5928 75.2642 28.2822 75.2642C28.8192 75.2642 29.3031 75.3636 29.7339 75.5625C30.1648 75.7614 30.5178 76.0398 30.7929 76.3977C31.068 76.7557 31.2387 77.1733 31.305 77.6506H30.1317C30.0422 77.3026 29.8433 76.9943 29.5351 76.7259C29.2301 76.4541 28.8192 76.3182 28.3021 76.3182C27.8447 76.3182 27.4437 76.4375 27.099 76.6761C26.7576 76.9115 26.4908 77.2446 26.2986 77.6754C26.1096 78.103 26.0152 78.6051 26.0152 79.1818C26.0152 79.7718 26.108 80.2855 26.2936 80.723C26.4825 81.1605 26.7477 81.5002 27.089 81.7422C27.4337 81.9841 27.8381 82.1051 28.3021 82.1051C28.607 82.1051 28.8838 82.0521 29.1324 81.946C29.3809 81.84 29.5914 81.6875 29.7638 81.4886C29.9361 81.2898 30.0587 81.0511 30.1317 80.7727H31.305C31.2387 81.2235 31.0746 81.6295 30.8128 81.9908C30.5542 82.3487 30.2112 82.6338 29.7836 82.8459C29.3594 83.0547 28.8656 83.1591 28.3021 83.1591ZM36.2219 83.1591C35.4861 83.1591 34.8514 82.9967 34.3177 82.6719C33.7874 82.3438 33.3781 81.8864 33.0898 81.2997C32.8047 80.7098 32.6622 80.0237 32.6622 79.2415C32.6622 78.4593 32.8047 77.7699 33.0898 77.1733C33.3781 76.5734 33.7791 76.1061 34.2929 75.7713C34.8099 75.4332 35.4131 75.2642 36.1025 75.2642C36.5003 75.2642 36.893 75.3305 37.2808 75.4631C37.6686 75.5956 38.0216 75.8111 38.3398 76.1094C38.6579 76.4044 38.9115 76.7955 39.1004 77.2827C39.2893 77.7699 39.3838 78.3698 39.3838 79.0824V79.5795H33.4974V78.5653H38.1906C38.1906 78.1345 38.1044 77.75 37.9321 77.4119C37.7631 77.0739 37.5211 76.8071 37.2062 76.6115C36.8947 76.416 36.5268 76.3182 36.1025 76.3182C35.6352 76.3182 35.2309 76.4342 34.8895 76.6662C34.5514 76.8949 34.2912 77.1932 34.1089 77.5611C33.9266 77.929 33.8355 78.3234 33.8355 78.7443V79.4205C33.8355 79.9972 33.9349 80.486 34.1338 80.8871C34.336 81.2848 34.616 81.5881 34.974 81.7969C35.3319 82.0024 35.7479 82.1051 36.2219 82.1051C36.5301 82.1051 36.8085 82.062 37.0571 81.9759C37.309 81.8864 37.5261 81.7538 37.7084 81.5781C37.8907 81.3991 38.0315 81.1771 38.1309 80.9119L39.2645 81.2301C39.1452 81.6146 38.9446 81.9527 38.6629 82.2443C38.3812 82.5327 38.0332 82.758 37.6189 82.9205C37.2046 83.0795 36.7389 83.1591 36.2219 83.1591ZM42.0237 83.0795C41.7784 83.0795 41.568 82.9917 41.3923 82.8161C41.2166 82.6404 41.1288 82.4299 41.1288 82.1847C41.1288 81.9394 41.2166 81.7289 41.3923 81.5533C41.568 81.3776 41.7784 81.2898 42.0237 81.2898C42.269 81.2898 42.4794 81.3776 42.6551 81.5533C42.8308 81.7289 42.9186 81.9394 42.9186 82.1847C42.9186 82.3471 42.8772 82.4962 42.7943 82.6321C42.7148 82.768 42.607 82.8774 42.4711 82.9602C42.3386 83.0398 42.1894 83.0795 42.0237 83.0795Z" fill="#FFF500"/>
<path d="M8.77868 59H7.54572C7.4728 58.6454 7.3452 58.3338 7.16291 58.0653C6.98393 57.7969 6.76518 57.5715 6.50666 57.3892C6.25145 57.2036 5.96807 57.0644 5.65652 56.9716C5.34496 56.8788 5.02015 56.8324 4.68208 56.8324C4.06561 56.8324 3.50713 56.9882 3.00666 57.2997C2.5095 57.6113 2.11343 58.0703 1.81845 58.6768C1.52678 59.2834 1.38095 60.0275 1.38095 60.9091C1.38095 61.7907 1.52678 62.5348 1.81845 63.1413C2.11343 63.7479 2.5095 64.2069 3.00666 64.5185C3.50713 64.83 4.06561 64.9858 4.68208 64.9858C5.02015 64.9858 5.34496 64.9394 5.65652 64.8466C5.96807 64.7538 6.25145 64.6162 6.50666 64.4339C6.76518 64.2483 6.98393 64.0213 7.16291 63.7528C7.3452 63.4811 7.4728 63.1695 7.54572 62.8182H8.77868C8.68587 63.3385 8.51684 63.8042 8.27157 64.2152C8.02631 64.6262 7.72138 64.9759 7.3568 65.2642C6.99222 65.5492 6.58289 65.7663 6.12882 65.9155C5.67806 66.0646 5.19582 66.1392 4.68208 66.1392C3.81371 66.1392 3.04146 65.9271 2.36532 65.5028C1.68919 65.0786 1.15723 64.4754 0.769443 63.6932C0.381658 62.911 0.187766 61.983 0.187766 60.9091C0.187766 59.8352 0.381658 58.9072 0.769443 58.125C1.15723 57.3428 1.68919 56.7396 2.36532 56.3153C3.04146 55.8911 3.81371 55.679 4.68208 55.679C5.19582 55.679 5.67806 55.7536 6.12882 55.9027C6.58289 56.0518 6.99222 56.2706 7.3568 56.5589C7.72138 56.844 8.02631 57.192 8.27157 57.603C8.51684 58.0107 8.68587 58.4763 8.77868 59ZM13.7142 66.1591C13.0248 66.1591 12.42 65.995 11.8996 65.6669C11.3825 65.3388 10.9782 64.8797 10.6865 64.2898C10.3982 63.6998 10.254 63.0104 10.254 62.2216C10.254 61.4261 10.3982 60.7318 10.6865 60.1385C10.9782 59.5452 11.3825 59.0845 11.8996 58.7564C12.42 58.4283 13.0248 58.2642 13.7142 58.2642C14.4036 58.2642 15.0068 58.4283 15.5239 58.7564C16.0442 59.0845 16.4486 59.5452 16.7369 60.1385C17.0286 60.7318 17.1744 61.4261 17.1744 62.2216C17.1744 63.0104 17.0286 63.6998 16.7369 64.2898C16.4486 64.8797 16.0442 65.3388 15.5239 65.6669C15.0068 65.995 14.4036 66.1591 13.7142 66.1591ZM13.7142 65.1051C14.2379 65.1051 14.6688 64.9709 15.0068 64.7024C15.3449 64.4339 15.5951 64.081 15.7575 63.6435C15.92 63.206 16.0012 62.732 16.0012 62.2216C16.0012 61.7112 15.92 61.2356 15.7575 60.7947C15.5951 60.3539 15.3449 59.9976 15.0068 59.7259C14.6688 59.4541 14.2379 59.3182 13.7142 59.3182C13.1905 59.3182 12.7597 59.4541 12.4216 59.7259C12.0835 59.9976 11.8333 60.3539 11.6709 60.7947C11.5085 61.2356 11.4273 61.7112 11.4273 62.2216C11.4273 62.732 11.5085 63.206 11.6709 63.6435C11.8333 64.081 12.0835 64.4339 12.4216 64.7024C12.7597 64.9709 13.1905 65.1051 13.7142 65.1051ZM18.9655 66V58.3636H20.099V59.517H20.1785C20.3177 59.1392 20.5696 58.8326 20.9342 58.5973C21.2988 58.362 21.7098 58.2443 22.1672 58.2443C22.2533 58.2443 22.3611 58.246 22.4903 58.2493C22.6196 58.2526 22.7174 58.2576 22.7836 58.2642V59.4574C22.7439 59.4474 22.6527 59.4325 22.5102 59.4126C22.371 59.3894 22.2235 59.3778 22.0677 59.3778C21.6965 59.3778 21.3651 59.4557 21.0734 59.6115C20.7851 59.764 20.5564 59.9761 20.3873 60.2479C20.2216 60.5163 20.1388 60.8229 20.1388 61.1676V66H18.9655ZM25.3477 61.4062V66H24.1744V58.3636H25.308V59.5568H25.4074C25.5864 59.169 25.8582 58.8575 26.2227 58.6222C26.5873 58.3835 27.058 58.2642 27.6347 58.2642C28.1517 58.2642 28.6041 58.3703 28.9919 58.5824C29.3797 58.7912 29.6813 59.1094 29.8968 59.5369C30.1122 59.9612 30.2199 60.4981 30.2199 61.1477V66H29.0466V61.2273C29.0466 60.6274 28.8908 60.16 28.5793 59.8253C28.2677 59.4872 27.8402 59.3182 27.2966 59.3182C26.9221 59.3182 26.5873 59.3994 26.2923 59.5618C26.0007 59.7242 25.7703 59.9612 25.6013 60.2727C25.4323 60.5843 25.3477 60.9621 25.3477 61.4062ZM35.5656 66.1591C34.8298 66.1591 34.1951 65.9967 33.6615 65.6719C33.1312 65.3438 32.7219 64.8864 32.4335 64.2997C32.1485 63.7098 32.0059 63.0237 32.0059 62.2415C32.0059 61.4593 32.1485 60.7699 32.4335 60.1733C32.7219 59.5734 33.1229 59.1061 33.6366 58.7713C34.1537 58.4332 34.7569 58.2642 35.4463 58.2642C35.844 58.2642 36.2368 58.3305 36.6246 58.4631C37.0123 58.5956 37.3653 58.8111 37.6835 59.1094C38.0017 59.4044 38.2552 59.7955 38.4442 60.2827C38.6331 60.7699 38.7275 61.3698 38.7275 62.0824V62.5795H32.8412V61.5653H37.5344C37.5344 61.1345 37.4482 60.75 37.2758 60.4119C37.1068 60.0739 36.8648 59.8071 36.55 59.6115C36.2384 59.416 35.8705 59.3182 35.4463 59.3182C34.979 59.3182 34.5746 59.4342 34.2332 59.6662C33.8952 59.8949 33.635 60.1932 33.4527 60.5611C33.2704 60.929 33.1792 61.3234 33.1792 61.7443V62.4205C33.1792 62.9972 33.2787 63.486 33.4775 63.8871C33.6797 64.2848 33.9598 64.5881 34.3177 64.7969C34.6757 65.0024 35.0916 65.1051 35.5656 65.1051C35.8738 65.1051 36.1523 65.062 36.4008 64.9759C36.6527 64.8864 36.8698 64.7538 37.0521 64.5781C37.2344 64.3991 37.3753 64.1771 37.4747 63.9119L38.6082 64.2301C38.4889 64.6146 38.2884 64.9527 38.0067 65.2443C37.7249 65.5327 37.3769 65.758 36.9626 65.9205C36.5483 66.0795 36.0827 66.1591 35.5656 66.1591ZM40.5123 66V58.3636H41.6459V59.517H41.7254C41.8646 59.1392 42.1165 58.8326 42.4811 58.5973C42.8457 58.362 43.2567 58.2443 43.714 58.2443C43.8002 58.2443 43.9079 58.246 44.0372 58.2493C44.1665 58.2526 44.2642 58.2576 44.3305 58.2642V59.4574C44.2907 59.4474 44.1996 59.4325 44.0571 59.4126C43.9179 59.3894 43.7704 59.3778 43.6146 59.3778C43.2434 59.3778 42.912 59.4557 42.6203 59.6115C42.3319 59.764 42.1032 59.9761 41.9342 60.2479C41.7685 60.5163 41.6856 60.8229 41.6856 61.1676V66H40.5123Z" fill="white"/>
</svg>
