<svg width="150" height="131" viewBox="0 0 150 131" fill="none" xmlns="http://www.w3.org/2000/svg">
<line x1="15.5" y1="4" x2="15.5" y2="51" stroke="white" stroke-width="3"/>
<path d="M146 125L76 125" stroke="white" stroke-width="3"/>
<line x1="145.5" y1="50.9797" x2="146.5" y2="124.98" stroke="white" stroke-width="3"/>
<path d="M145 1L145.521 50.9973" stroke="#FFF500" stroke-width="3"/>
<g filter="url(#filter0_d_0_1)">
<path d="M145 2L96 2.5" stroke="#FFF500" stroke-width="3"/>
</g>
<line x1="14" y1="2.5" x2="96" y2="2.5" stroke="white" stroke-width="3"/>
<path d="M13.0098 61.7187V60H25.0098V61.7187H19.9785V76H18.041V61.7187H13.0098ZM29.5938 68.7812V76H27.75V60H29.5938V65.875H29.75C30.0313 65.2552 30.4531 64.763 31.0156 64.3984C31.5833 64.0286 32.3385 63.8438 33.2812 63.8438C34.099 63.8438 34.8151 64.0078 35.4297 64.3359C36.0443 64.6589 36.5208 65.1562 36.8594 65.8281C37.2031 66.4948 37.375 67.3437 37.375 68.375V76H35.5313V68.5C35.5313 67.5469 35.2839 66.8099 34.7891 66.2891C34.2995 65.763 33.6198 65.5 32.75 65.5C32.1458 65.5 31.6042 65.6276 31.125 65.8828C30.651 66.138 30.276 66.5104 30 67C29.7292 67.4896 29.5938 68.0833 29.5938 68.7812ZM45.7793 76.25C44.623 76.25 43.6257 75.9948 42.7871 75.4844C41.9538 74.9688 41.3105 74.25 40.8574 73.3281C40.4095 72.401 40.1855 71.3229 40.1855 70.0938C40.1855 68.8646 40.4095 67.7812 40.8574 66.8437C41.3105 65.901 41.9408 65.1667 42.748 64.6406C43.5605 64.1094 44.5085 63.8438 45.5918 63.8438C46.2168 63.8438 46.834 63.9479 47.4434 64.1562C48.0527 64.3646 48.6074 64.7031 49.1074 65.1719C49.6074 65.6354 50.0059 66.25 50.3027 67.0156C50.5996 67.7812 50.748 68.724 50.748 69.8437V70.625H41.498V69.0312H48.873C48.873 68.3542 48.7376 67.75 48.4668 67.2187C48.2012 66.6875 47.821 66.2682 47.3262 65.9609C46.8366 65.6536 46.2585 65.5 45.5918 65.5C44.8574 65.5 44.222 65.6823 43.6855 66.0469C43.1543 66.4062 42.7454 66.875 42.459 67.4531C42.1725 68.0312 42.0293 68.651 42.0293 69.3125V70.375C42.0293 71.2813 42.1855 72.0495 42.498 72.6797C42.8158 73.3047 43.2559 73.7812 43.8184 74.1094C44.3809 74.4323 45.0345 74.5938 45.7793 74.5938C46.2637 74.5938 46.7012 74.526 47.0918 74.3906C47.4876 74.25 47.8288 74.0417 48.1152 73.7656C48.4017 73.4844 48.623 73.1354 48.7793 72.7187L50.5605 73.2188C50.373 73.8229 50.0579 74.3542 49.6152 74.8125C49.1725 75.2656 48.6257 75.6198 47.9746 75.875C47.3236 76.125 46.5918 76.25 45.7793 76.25ZM15.9443 122C15.9443 123.687 15.6396 125.146 15.0303 126.375C14.4209 127.604 13.585 128.552 12.5225 129.219C11.46 129.885 10.2464 130.219 8.88184 130.219C7.51725 130.219 6.30371 129.885 5.24121 129.219C4.17871 128.552 3.34277 127.604 2.7334 126.375C2.12402 125.146 1.81934 123.687 1.81934 122C1.81934 120.312 2.12402 118.854 2.7334 117.625C3.34277 116.396 4.17871 115.448 5.24121 114.781C6.30371 114.115 7.51725 113.781 8.88184 113.781C10.2464 113.781 11.46 114.115 12.5225 114.781C13.585 115.448 14.4209 116.396 15.0303 117.625C15.6396 118.854 15.9443 120.312 15.9443 122ZM14.0693 122C14.0693 120.615 13.8376 119.445 13.374 118.492C12.9157 117.539 12.2933 116.818 11.5068 116.328C10.7256 115.839 9.85059 115.594 8.88184 115.594C7.91309 115.594 7.03548 115.839 6.24902 116.328C5.46777 116.818 4.84538 117.539 4.38184 118.492C3.9235 119.445 3.69434 120.615 3.69434 122C3.69434 123.385 3.9235 124.555 4.38184 125.508C4.84538 126.461 5.46777 127.182 6.24902 127.672C7.03548 128.161 7.91309 128.406 8.88184 128.406C9.85059 128.406 10.7256 128.161 11.5068 127.672C12.2933 127.182 12.9157 126.461 13.374 125.508C13.8376 124.555 14.0693 123.385 14.0693 122ZM24.2959 118V119.562H17.8271V118H24.2959ZM19.7646 130V116.344C19.7646 115.656 19.9261 115.083 20.249 114.625C20.5719 114.167 20.9912 113.823 21.5068 113.594C22.0225 113.365 22.5667 113.25 23.1396 113.25C23.5928 113.25 23.9626 113.286 24.249 113.359C24.5355 113.432 24.749 113.5 24.8896 113.562L24.3584 115.156C24.2646 115.125 24.1344 115.086 23.9678 115.039C23.8063 114.992 23.5928 114.969 23.3271 114.969C22.7178 114.969 22.2777 115.122 22.0068 115.43C21.7412 115.737 21.6084 116.187 21.6084 116.781V130H19.7646ZM32.2236 118V119.562H25.7549V118H32.2236ZM27.6924 130V116.344C27.6924 115.656 27.8538 115.083 28.1768 114.625C28.4997 114.167 28.9189 113.823 29.4346 113.594C29.9502 113.365 30.4945 113.25 31.0674 113.25C31.5205 113.25 31.8903 113.286 32.1768 113.359C32.4632 113.432 32.6768 113.5 32.8174 113.562L32.2861 115.156C32.1924 115.125 32.0622 115.086 31.8955 115.039C31.734 114.992 31.5205 114.969 31.2549 114.969C30.6455 114.969 30.2054 115.122 29.9346 115.43C29.6689 115.737 29.5361 116.187 29.5361 116.781V130H27.6924ZM34.8076 130V118H36.6514V130H34.8076ZM35.7451 116C35.3857 116 35.0758 115.878 34.8154 115.633C34.5602 115.388 34.4326 115.094 34.4326 114.75C34.4326 114.406 34.5602 114.112 34.8154 113.867C35.0758 113.622 35.3857 113.5 35.7451 113.5C36.1045 113.5 36.4118 113.622 36.667 113.867C36.9274 114.112 37.0576 114.406 37.0576 114.75C37.0576 115.094 36.9274 115.388 36.667 115.633C36.4118 115.878 36.1045 116 35.7451 116ZM44.9033 130.25C43.7783 130.25 42.8096 129.984 41.9971 129.453C41.1846 128.922 40.5596 128.19 40.1221 127.258C39.6846 126.326 39.4658 125.26 39.4658 124.062C39.4658 122.844 39.6898 121.768 40.1377 120.836C40.5908 119.898 41.221 119.167 42.0283 118.641C42.8408 118.109 43.7887 117.844 44.8721 117.844C45.7158 117.844 46.4762 118 47.1533 118.312C47.8304 118.625 48.3851 119.062 48.8174 119.625C49.2497 120.187 49.5179 120.844 49.6221 121.594H47.7783C47.6377 121.047 47.3252 120.562 46.8408 120.141C46.3617 119.714 45.7158 119.5 44.9033 119.5C44.1846 119.5 43.5544 119.687 43.0127 120.062C42.4762 120.432 42.057 120.956 41.7549 121.633C41.458 122.305 41.3096 123.094 41.3096 124C41.3096 124.927 41.4554 125.734 41.7471 126.422C42.0439 127.109 42.4606 127.643 42.9971 128.023C43.5387 128.404 44.1742 128.594 44.9033 128.594C45.3825 128.594 45.8174 128.51 46.208 128.344C46.5986 128.177 46.9294 127.938 47.2002 127.625C47.471 127.312 47.6637 126.937 47.7783 126.5H49.6221C49.5179 127.208 49.2601 127.846 48.8486 128.414C48.4424 128.977 47.9033 129.424 47.2314 129.758C46.5648 130.086 45.7887 130.25 44.9033 130.25ZM57.3486 130.25C56.1924 130.25 55.195 129.995 54.3564 129.484C53.5231 128.969 52.8799 128.25 52.4268 127.328C51.9788 126.401 51.7549 125.323 51.7549 124.094C51.7549 122.865 51.9788 121.781 52.4268 120.844C52.8799 119.901 53.5101 119.167 54.3174 118.641C55.1299 118.109 56.0778 117.844 57.1611 117.844C57.7861 117.844 58.4033 117.948 59.0127 118.156C59.6221 118.365 60.1768 118.703 60.6768 119.172C61.1768 119.635 61.5752 120.25 61.8721 121.016C62.1689 121.781 62.3174 122.724 62.3174 123.844V124.625H53.0674V123.031H60.4424C60.4424 122.354 60.307 121.75 60.0361 121.219C59.7705 120.687 59.3903 120.268 58.8955 119.961C58.4059 119.654 57.8278 119.5 57.1611 119.5C56.4268 119.5 55.7913 119.682 55.2549 120.047C54.7236 120.406 54.3148 120.875 54.0283 121.453C53.7419 122.031 53.5986 122.651 53.5986 123.312V124.375C53.5986 125.281 53.7549 126.049 54.0674 126.68C54.3851 127.305 54.8252 127.781 55.3877 128.109C55.9502 128.432 56.6038 128.594 57.3486 128.594C57.833 128.594 58.2705 128.526 58.6611 128.391C59.057 128.25 59.3981 128.042 59.6846 127.766C59.971 127.484 60.1924 127.135 60.3486 126.719L62.1299 127.219C61.9424 127.823 61.6273 128.354 61.1846 128.812C60.7419 129.266 60.195 129.62 59.5439 129.875C58.8929 130.125 58.1611 130.25 57.3486 130.25ZM66.4658 130.125C66.0804 130.125 65.7497 129.987 65.4736 129.711C65.1976 129.435 65.0596 129.104 65.0596 128.719C65.0596 128.333 65.1976 128.003 65.4736 127.727C65.7497 127.451 66.0804 127.312 66.4658 127.312C66.8512 127.312 67.182 127.451 67.458 127.727C67.734 128.003 67.8721 128.333 67.8721 128.719C67.8721 128.974 67.807 129.208 67.6768 129.422C67.5518 129.635 67.3825 129.807 67.1689 129.937C66.9606 130.063 66.7262 130.125 66.4658 130.125Z" fill="#FFF500"/>
<path d="M14.2236 92H12.2861C12.1716 91.4427 11.971 90.9531 11.6846 90.5312C11.4033 90.1094 11.0596 89.7552 10.6533 89.4688C10.2523 89.1771 9.80697 88.9583 9.31738 88.8125C8.8278 88.6667 8.31738 88.5937 7.78613 88.5937C6.81738 88.5937 5.93978 88.8385 5.15332 89.3281C4.37207 89.8177 3.74967 90.5391 3.28613 91.4922C2.8278 92.4453 2.59863 93.6146 2.59863 95C2.59863 96.3854 2.8278 97.5547 3.28613 98.5078C3.74967 99.4609 4.37207 100.182 5.15332 100.672C5.93978 101.161 6.81738 101.406 7.78613 101.406C8.31738 101.406 8.8278 101.333 9.31738 101.187C9.80697 101.042 10.2523 100.826 10.6533 100.539C11.0596 100.247 11.4033 99.8906 11.6846 99.4687C11.971 99.0417 12.1716 98.5521 12.2861 98H14.2236C14.0778 98.8177 13.8122 99.5495 13.4268 100.195C13.0413 100.841 12.5622 101.391 11.9893 101.844C11.4163 102.292 10.7731 102.633 10.0596 102.867C9.35124 103.102 8.59342 103.219 7.78613 103.219C6.42155 103.219 5.20801 102.885 4.14551 102.219C3.08301 101.552 2.24707 100.604 1.6377 99.375C1.02832 98.1458 0.723633 96.6875 0.723633 95C0.723633 93.3125 1.02832 91.8542 1.6377 90.625C2.24707 89.3958 3.08301 88.4479 4.14551 87.7812C5.20801 87.1146 6.42155 86.7812 7.78613 86.7812C8.59342 86.7812 9.35124 86.8984 10.0596 87.1328C10.7731 87.3672 11.4163 87.7109 11.9893 88.1641C12.5622 88.612 13.0413 89.1589 13.4268 89.8047C13.8122 90.4453 14.0778 91.1771 14.2236 92ZM21.9795 103.25C20.8962 103.25 19.9456 102.992 19.1279 102.477C18.3154 101.961 17.68 101.24 17.2217 100.312C16.7686 99.3854 16.542 98.3021 16.542 97.0625C16.542 95.8125 16.7686 94.7214 17.2217 93.7891C17.68 92.8568 18.3154 92.1328 19.1279 91.6172C19.9456 91.1016 20.8962 90.8438 21.9795 90.8438C23.0628 90.8438 24.0107 91.1016 24.8232 91.6172C25.641 92.1328 26.2764 92.8568 26.7295 93.7891C27.1878 94.7214 27.417 95.8125 27.417 97.0625C27.417 98.3021 27.1878 99.3854 26.7295 100.312C26.2764 101.24 25.641 101.961 24.8232 102.477C24.0107 102.992 23.0628 103.25 21.9795 103.25ZM21.9795 101.594C22.8024 101.594 23.4795 101.383 24.0107 100.961C24.542 100.539 24.9352 99.9844 25.1904 99.2969C25.4456 98.6094 25.5732 97.8646 25.5732 97.0625C25.5732 96.2604 25.4456 95.513 25.1904 94.8203C24.9352 94.1276 24.542 93.5677 24.0107 93.1406C23.4795 92.7135 22.8024 92.5 21.9795 92.5C21.1566 92.5 20.4795 92.7135 19.9482 93.1406C19.417 93.5677 19.0238 94.1276 18.7686 94.8203C18.5133 95.513 18.3857 96.2604 18.3857 97.0625C18.3857 97.8646 18.5133 98.6094 18.7686 99.2969C19.0238 99.9844 19.417 100.539 19.9482 100.961C20.4795 101.383 21.1566 101.594 21.9795 101.594ZM30.2314 103V91H32.0127V92.8125H32.1377C32.3564 92.2188 32.7523 91.737 33.3252 91.3672C33.8981 90.9974 34.5439 90.8125 35.2627 90.8125C35.3981 90.8125 35.5674 90.8151 35.7705 90.8203C35.9736 90.8255 36.1273 90.8333 36.2314 90.8438V92.7187C36.1689 92.7031 36.0257 92.6797 35.8018 92.6484C35.583 92.612 35.3512 92.5937 35.1064 92.5937C34.5231 92.5937 34.0023 92.7161 33.5439 92.9609C33.0908 93.2005 32.7314 93.5339 32.4658 93.9609C32.2054 94.3828 32.0752 94.8646 32.0752 95.4062V103H30.2314ZM40.2607 95.7812V103H38.417V91H40.1982V92.875H40.3545C40.6357 92.2656 41.0628 91.776 41.6357 91.4063C42.2087 91.0313 42.9482 90.8438 43.8545 90.8438C44.667 90.8438 45.3779 91.0104 45.9873 91.3437C46.5967 91.6719 47.0706 92.1719 47.4092 92.8437C47.7477 93.5104 47.917 94.3542 47.917 95.375V103H46.0732V95.5C46.0732 94.5573 45.8285 93.8229 45.3389 93.2969C44.8493 92.7656 44.1774 92.5 43.3232 92.5C42.7347 92.5 42.2087 92.6276 41.7451 92.8828C41.2868 93.138 40.9248 93.5104 40.6592 94C40.3936 94.4896 40.2607 95.0833 40.2607 95.7812ZM56.3174 103.25C55.1611 103.25 54.1637 102.995 53.3252 102.484C52.4919 101.969 51.8486 101.25 51.3955 100.328C50.9476 99.401 50.7236 98.3229 50.7236 97.0938C50.7236 95.8646 50.9476 94.7812 51.3955 93.8437C51.8486 92.901 52.4788 92.1667 53.2861 91.6406C54.0986 91.1094 55.0465 90.8438 56.1299 90.8438C56.7549 90.8438 57.3721 90.9479 57.9814 91.1562C58.5908 91.3646 59.1455 91.7031 59.6455 92.1719C60.1455 92.6354 60.5439 93.25 60.8408 94.0156C61.1377 94.7812 61.2861 95.724 61.2861 96.8437V97.625H52.0361V96.0312H59.4111C59.4111 95.3542 59.2757 94.75 59.0049 94.2187C58.7393 93.6875 58.359 93.2682 57.8643 92.9609C57.3747 92.6536 56.7965 92.5 56.1299 92.5C55.3955 92.5 54.7601 92.6823 54.2236 93.0469C53.6924 93.4062 53.2835 93.875 52.9971 94.4531C52.7106 95.0312 52.5674 95.651 52.5674 96.3125V97.375C52.5674 98.2813 52.7236 99.0495 53.0361 99.6797C53.3538 100.305 53.7939 100.781 54.3564 101.109C54.9189 101.432 55.5726 101.594 56.3174 101.594C56.8018 101.594 57.2393 101.526 57.6299 101.391C58.0257 101.25 58.3669 101.042 58.6533 100.766C58.9398 100.484 59.1611 100.135 59.3174 99.7187L61.0986 100.219C60.9111 100.823 60.596 101.354 60.1533 101.812C59.7106 102.266 59.1637 102.62 58.5127 102.875C57.8617 103.125 57.1299 103.25 56.3174 103.25ZM64.0908 103V91H65.8721V92.8125H65.9971C66.2158 92.2188 66.6117 91.737 67.1846 91.3672C67.7575 90.9974 68.4033 90.8125 69.1221 90.8125C69.2575 90.8125 69.4268 90.8151 69.6299 90.8203C69.833 90.8255 69.9867 90.8333 70.0908 90.8438V92.7187C70.0283 92.7031 69.8851 92.6797 69.6611 92.6484C69.4424 92.612 69.2106 92.5937 68.9658 92.5937C68.3825 92.5937 67.8617 92.7161 67.4033 92.9609C66.9502 93.2005 66.5908 93.5339 66.3252 93.9609C66.0648 94.3828 65.9346 94.8646 65.9346 95.4062V103H64.0908Z" fill="white"/>
<defs>
<filter id="filter0_d_0_1" x="91.9847" y="0.500076" width="57.0306" height="11.4998" filterUnits="userSpaceOnUse" color-interpolation-filters="sRGB">
<feFlood flood-opacity="0" result="BackgroundImageFix"/>
<feColorMatrix in="SourceAlpha" type="matrix" values="0 0 0 0 0 0 0 0 0 0 0 0 0 0 0 0 0 0 127 0" result="hardAlpha"/>
<feOffset dy="4"/>
<feGaussianBlur stdDeviation="2"/>
<feComposite in2="hardAlpha" operator="out"/>
<feColorMatrix type="matrix" values="0 0 0 0 0 0 0 0 0 0 0 0 0 0 0 0 0 0 0.25 0"/>
<feBlend mode="normal" in2="BackgroundImageFix" result="effect1_dropShadow_0_1"/>
<feBlend mode="normal" in="SourceGraphic" in2="effect1_dropShadow_0_1" result="shape"/>
</filter>
</defs>
</svg>
